<?xml version="1.0" encoding="UTF-8" standalone="no"?>
<svg
   xmlns:svg="http://www.w3.org/2000/svg"
   xmlns="http://www.w3.org/2000/svg"
   version="1.1"
   width="570.96875"
   height="274.375"
   id="svg4160">
  <defs
     id="defs4162" />
<path d="M50,125 C 100,25 150,225, 200, 125"
       style="fill: none; stroke: blue;"/>
<!-- Triangle to be moved along the motion path.
It is defined with an upright orientation with the base of the triangle centered horizontally just above the origin. -->
<path d="M-10,-3 L10,-3 L0,-25z" style="fill: yellow; stroke: red;" > <animateMotion
path="M50,125 C 100,25 150,225, 200, 125" rotate="auto"
dur="6s" fill="freeze" repeatCount="20"/>
</path>			 
  <g
     transform="translate(-163.125,-392.3125)"
     id="layer1">
    <path
       d="m 370.2777,631.98448 c 0,4.58176 2.99577,8.18372 6.84445,8.18372 3.85572,0 6.85149,-3.60196 6.85149,-8.18372 l 0,-131.01014 c 0,-4.58881 -2.99577,-8.20487 -6.85149,-8.20487 -3.84868,0 -6.84445,3.61606 -6.84445,8.20487 l 0,131.01014 z m 6.84445,-163.77324 c 15.36651,0 27.42007,14.74621 27.42007,32.7631 l 0,131.01014 c 0,18.33408 -12.05356,32.75605 -27.42007,32.75605 -15.08457,0 -27.41303,-14.42197 -27.41303,-32.75605 l 0,-131.01014 c 0,-18.01689 12.32846,-32.7631 27.41303,-32.7631 m -92.775,2.94431 20.58267,0 0,164.42173 c 0,0 13.69594,-5.89285 13.69594,-22.58455 l 0,-141.83718 20.56153,0 0,141.83718 c 0,27.17336 -21.38625,50.44165 -44.41488,50.44165 l -10.42526,0 0,-192.27883 z m -33.32561,100.90162 0,65.49802 20.56153,0 0,24.57233 -41.13716,0 0,-190.97479 42.87118,-0.41589 0,24.57233 -22.29555,0.42293 0,51.75979 20.56153,0 0,24.56528 -20.56153,0 z m -58.50625,-76.32577 -6.8515,0 0,141.82309 6.8515,0 c 3.84162,0 6.85854,-3.60197 6.85854,-8.19783 l 0,-125.44858 c 0,-4.57471 -3.01692,-8.17668 -6.85854,-8.17668 m 27.41302,133.62526 c 0,18.34819 -12.06061,32.77016 -27.41302,32.77016 l -27.42007,0 0,-190.9748 27.42007,0 c 15.35241,0 27.41302,14.41492 27.41302,32.75606 l 0,125.44858 z"
       id="path160"
       style="fill:#70787d;fill-opacity:1;fill-rule:nonzero;stroke:none" />
    <path
       d="m 680.0164,394.26955 0,34.9375 0,1.1875 -0.25,0.0312 -0.375,-1.125 c -3.48919,-10.5169 -13.63841,-17.65226 -25.15625,-17.6875 l -0.125,0 c -12.82893,0 -23.83107,8.8104 -26.09375,20.90625 l -0.1875,1.15625 -0.28125,0 -0.15625,-1.1875 c -1.68468,-12.02531 -12.35035,-21.05047 -25.03125,-21.1562 l -0.21875,0 c -14.09067,0 -25.5,10.93893 -25.5,24.4375 l 0,25.09375 14.84375,0 0,-24.78125 c 0,-5.68843 4.67482,-10.46875 10.6875,-10.46875 l 0.0625,0 c 5.91399,0.0282 10.6875,4.62101 10.6875,10.28125 l 0,24.96875 15.21875,0 0,-18.3125 0,-1.1875 0.34375,-0.0312 0.3125,1.15625 c 2.79135,10.99617 13.10646,18.7187 24.90625,18.7187 l 0.3125,0 c 10.95393,-0.13393 20.5813,-6.8877 24,-16.8125 l -16.6875,0 c -2.03712,1.60714 -4.58248,2.4859 -7.21875,2.5 l -0.0625,0 c -6.25234,0 -11.4234,-4.79277 -11.4375,-10.8125 0,-6.04792 5.15696,-10.875 11.4375,-10.875 l 0.125,0 c 4.76503,0.0493 8.98966,2.90884 10.625,7.1875 l 0.125,0.40625 -0.4375,0 -16.46875,0 0,8.4375 32.09375,0 0.25,0 0.0625,0.25 c 2.64332,11.47555 13.25213,19.625 25.53125,19.625 13.73823,0 25.10691,-10.15016 26.09375,-23.21875 l -16.03125,0 c -0.47227,4.9483 -4.83107,9.07965 -9.90625,9.09375 l -0.0625,0 c -6.203,0 -10.84375,-4.75823 -10.84375,-10.53125 l 0,-13.4375 35.21875,0 0,-11.4375 -34.8125,0 0,-17.3125 -15.59375,0 z m -175.1875,0.5625 0,39.96875 c 0,5.51926 -4.62712,10.03125 -10.34375,10.03125 -0.23966,0 -0.47204,-0.0171 -0.71875,-0.0312 -5.42762,-0.35244 -9.65625,-4.64874 -9.65625,-9.84375 l 0,-0.125 c 0.0634,-5.14567 4.28196,-9.31696 9.625,-9.71875 0.26081,-0.0141 0.55169,-0.0312 0.8125,-0.0312 1.45207,0 2.89356,0.28689 4.21875,0.84375 l 0,-15.40625 c -1.72697,-0.38064 -3.47369,-0.57566 -5.25,-0.625 l -0.5,0 c -14.39377,0 -25.375,11.70514 -25.375,25.28125 0,0.23261 0.0172,0.45489 0.0312,0.6875 0.37359,13.51972 11.75919,24.40649 25.90625,24.625 0.14098,0.0141 0.27538,0.0312 0.4375,0.0312 12.95581,0 24.02937,-9.06064 26.03125,-21.375 l 0.1875,-1.15625 0.28125,0 0.15625,1.15625 c 0.72603,5.5545 3.38652,10.72604 7.53125,14.6875 4.9483,4.71569 11.61726,7.3125 18.46875,7.3125 1.53665,0 3.0571,-0.14544 4.59375,-0.40625 l 0,-14.625 c -1.42387,0.55686 -2.9321,0.8125 -4.46875,0.8125 l -0.21875,0 c -6.22414,-0.12688 -11.41236,-4.81697 -11.46875,-10.84375 l 0,-0.125 c 0,-6.01268 5.02092,-11 11.34375,-11 l 0.1875,0 c 6.30168,0.11278 11.1875,4.81627 11.1875,11.125 l 0,24.6875 15.28125,0 -0.0312,-25.0625 c -0.0141,-13.87216 -11.85223,-24.98191 -26.28125,-25.03125 l -0.0937,0 c -12.59632,0 -22.1633,9.19645 -25.90625,20.3125 l -0.375,1.125 -0.25,-0.0312 0,-1.1875 0,-36.0625 -15.34375,0 z m -61.875,15 -21.4375,0.0937 0,228.875 c 0,6.90788 2.31486,13.50988 6.375,18 4.06014,4.49717 9.26129,7.26245 15.0625,7.59375 l 0,-174.28125 21.40625,0 0,-25.5625 -21.40625,0 0,-54.71875 z m 57,52.625 c -17.6574,0 -32.125,17.28481 -32.125,38.375 l 0,125.1875 c 0,21.09724 14.4676,38.375 32.125,38.375 17.66445,0 32.125,-17.27776 32.125,-38.375 l 0,-14.875 -21.40625,0 0,25.59375 -21.40625,0 0,-60.53125 42.8125,0 0,-75.375 c 0,-21.09019 -14.46055,-38.375 -32.125,-38.375 z m 50.96875,2.09375 0,25.5625 38.21875,0 0,26.625 -21.4375,0 c -11.87028,0 -21.4375,11.43259 -21.4375,25.59375 l 0,94.40625 c 0,14.18231 9.56722,25.59375 21.4375,25.59375 l 42.84375,0 0,-172.21875 c 0,-14.17526 -9.52892,-25.5625 -21.40625,-25.5625 l -38.21875,0 z m 73.8125,0 0,197.78125 21.40625,0 0,-172.21875 21.4375,0 0,172.21875 21.40625,0 0,-172.21875 21.4375,0 0,172.21875 21.40625,0 0,-172.21875 c 0,-14.17526 -9.53597,-25.5625 -21.40625,-25.5625 l -85.6875,0 z m -135.46875,25.5625 21.40625,0 0,60.5 -21.40625,0 0,-60.5 z m 78.4375,52.21875 21.4375,0 0,94.40625 -21.4375,0 0,-94.40625 z"
       id="path184"
       style="fill:#004b95;fill-opacity:1;fill-rule:nonzero;stroke:none" />
    <path
       d="m 680.0164,394.26955 0,34.9375 0,1.1875 -0.25,0.0312 -0.375,-1.125 c -3.48919,-10.5169 -13.63841,-17.65226 -25.15625,-17.6875 l -0.125,0 c -12.82893,0 -23.83107,8.8104 -26.09375,20.90625 l -0.1875,1.15625 -0.28125,0 -0.15625,-1.1875 c -1.68468,-12.02531 -12.35035,-21.05047 -25.03125,-21.1562 l -0.21875,0 c -14.09067,0 -25.5,10.93893 -25.5,24.4375 l 0,25.09375 14.84375,0 0,-24.78125 c 0,-5.68843 4.67482,-10.46875 10.6875,-10.46875 l 0.0625,0 c 5.91399,0.0282 10.6875,4.62101 10.6875,10.28125 l 0,24.96875 15.21875,0 0,-18.3125 0,-1.1875 0.34375,-0.0312 0.3125,1.15625 c 2.79135,10.99617 13.10646,18.7187 24.90625,18.7187 l 0.3125,0 c 10.95393,-0.13393 20.5813,-6.8877 24,-16.8125 l -16.6875,0 c -2.03712,1.60714 -4.58248,2.4859 -7.21875,2.5 l -0.0625,0 c -6.25234,0 -11.4234,-4.79277 -11.4375,-10.8125 0,-6.04792 5.15696,-10.875 11.4375,-10.875 l 0.125,0 c 4.76503,0.0493 8.98966,2.90884 10.625,7.1875 l 0.125,0.40625 -0.4375,0 -16.46875,0 0,8.4375 32.09375,0 0.25,0 0.0625,0.25 c 2.64332,11.47555 13.25213,19.625 25.53125,19.625 13.73823,0 25.10691,-10.15016 26.09375,-23.21875 l -16.03125,0 c -0.47227,4.9483 -4.83107,9.07965 -9.90625,9.09375 l -0.0625,0 c -6.203,0 -10.84375,-4.75823 -10.84375,-10.53125 l 0,-13.4375 35.21875,0 0,-11.4375 -34.8125,0 0,-17.3125 -15.59375,0 z m -175.1875,0.5625 0,39.96875 c 0,5.51926 -4.62712,10.03125 -10.34375,10.03125 -0.23966,0 -0.47204,-0.0171 -0.71875,-0.0312 -5.42762,-0.35244 -9.65625,-4.64874 -9.65625,-9.84375 l 0,-0.125 c 0.0634,-5.14567 4.28196,-9.31696 9.625,-9.71875 0.26081,-0.0141 0.55169,-0.0312 0.8125,-0.0312 1.45207,0 2.89356,0.28689 4.21875,0.84375 l 0,-15.40625 c -1.72697,-0.38064 -3.47369,-0.57566 -5.25,-0.625 l -0.5,0 c -14.39377,0 -25.375,11.70514 -25.375,25.28125 0,0.23261 0.0172,0.45489 0.0312,0.6875 0.37359,13.51972 11.75919,24.40649 25.90625,24.625 0.14098,0.0141 0.27538,0.0312 0.4375,0.0312 12.95581,0 24.02937,-9.06064 26.03125,-21.375 l 0.1875,-1.15625 0.28125,0 0.15625,1.15625 c 0.72603,5.5545 3.38652,10.72604 7.53125,14.6875 4.9483,4.71569 11.61726,7.3125 18.46875,7.3125 1.53665,0 3.0571,-0.14544 4.59375,-0.40625 l 0,-14.625 c -1.42387,0.55686 -2.9321,0.8125 -4.46875,0.8125 l -0.21875,0 c -6.22414,-0.12688 -11.41236,-4.81697 -11.46875,-10.84375 l 0,-0.125 c 0,-6.01268 5.02092,-11 11.34375,-11 l 0.1875,0 c 6.30168,0.11278 11.1875,4.81627 11.1875,11.125 l 0,24.6875 15.28125,0 -0.0312,-25.0625 c -0.0141,-13.87216 -11.85223,-24.98191 -26.28125,-25.03125 l -0.0937,0 c -12.59632,0 -22.1633,9.19645 -25.90625,20.3125 l -0.375,1.125 -0.25,-0.0312 0,-1.1875 0,-36.0625 -15.34375,0 z m -61.875,15 -21.4375,0.0937 0,228.875 c 0,6.90788 2.31486,13.50988 6.375,18 4.06014,4.49717 9.26129,7.26245 15.0625,7.59375 l 0,-174.28125 21.40625,0 0,-25.5625 -21.40625,0 0,-54.71875 z m 57,52.625 c -17.6574,0 -32.125,17.28481 -32.125,38.375 l 0,125.1875 c 0,21.09724 14.4676,38.375 32.125,38.375 17.66445,0 32.125,-17.27776 32.125,-38.375 l 0,-14.875 -21.40625,0 0,25.59375 -21.40625,0 0,-60.53125 42.8125,0 0,-75.375 c 0,-21.09019 -14.46055,-38.375 -32.125,-38.375 z m 50.96875,2.09375 0,25.5625 38.21875,0 0,26.625 -21.4375,0 c -11.87028,0 -21.4375,11.43259 -21.4375,25.59375 l 0,94.40625 c 0,14.18231 9.56722,25.59375 21.4375,25.59375 l 42.84375,0 0,-172.21875 c 0,-14.17526 -9.52892,-25.5625 -21.40625,-25.5625 l -38.21875,0 z m 73.8125,0 0,197.78125 21.40625,0 0,-172.21875 21.4375,0 0,172.21875 21.40625,0 0,-172.21875 21.4375,0 0,172.21875 21.40625,0 0,-172.21875 c 0,-14.17526 -9.53597,-25.5625 -21.40625,-25.5625 l -85.6875,0 z m -135.46875,25.5625 21.40625,0 0,60.5 -21.40625,0 0,-60.5 z m 78.4375,52.21875 21.4375,0 0,94.40625 -21.4375,0 0,-94.40625 z m -197.4262,89.65242 c 0,4.58176 2.99576,8.18373 6.84444,8.18373 3.85573,0 6.85149,-3.60197 6.85149,-8.18373 l 0,-131.01013 c 0,-4.58881 -2.99576,-8.20488 -6.85149,-8.20488 -3.84868,0 -6.84444,3.61607 -6.84444,8.20488 l 0,131.01013 z m 6.84444,-163.77324 c 15.36652,0 27.42007,14.74622 27.42007,32.76311 l 0,131.01013 c 0,18.33409 -12.05355,32.75606 -27.42007,32.75606 -15.08456,0 -27.41302,-14.42197 -27.41302,-32.75606 l 0,-131.01013 c 0,-18.01689 12.32846,-32.76311 27.41302,-32.76311 z m -92.775,2.94431 20.58268,0 0,164.42173 c 0,0 13.69594,-5.89285 13.69594,-22.58455 l 0,-141.83718 20.56152,0 0,141.83718 c 0,27.17336 -21.38624,50.44165 -44.41487,50.44165 l -10.42527,0 0,-192.27883 z m -33.32561,100.90163 0,65.49801 20.56154,0 0,24.57233 -41.13717,0 0,-190.97479 42.87119,-0.41588 0,24.57233 -22.29556,0.42293 0,51.75978 20.56154,0 0,24.56529 -20.56154,0 z m -58.50625,-76.32578 -6.8515,0 0,141.82309 6.8515,0 c 3.84163,0 6.85854,-3.60197 6.85854,-8.19783 l 0,-125.44858 c 0,-4.57471 -3.01691,-8.17668 -6.85854,-8.17668 z m 27.41302,133.62526 c 0,18.34819 -12.0606,32.77016 -27.41302,32.77016 l -27.42007,0 0,-190.9748 27.42007,0 c 15.35242,0 27.41302,14.41493 27.41302,32.75606 l 0,125.44858 z"
       id="path268"
       style="fill:none;stroke:#ffffff;stroke-width:1.91729033;stroke-linecap:butt;stroke-linejoin:miter;stroke-miterlimit:4;stroke-opacity:1;stroke-dasharray:none" />
  </g>
	
</svg>
